HIERARCHY
ROOT Hips
{
	OFFSET 0.00000 0.00000 0.00000
	CHANNELS 6 Xposition Yposition Zposition Zrotation Yrotation Xrotation 
	JOINT LHipJoint
	{
		OFFSET 0 0 0
		CHANNELS 3 Zrotation Yrotation Xrotation
		JOINT LeftHip
		{
			OFFSET 1.62329 -1.80800 0.67318
			CHANNELS 3 Zrotation Yrotation Xrotation
			JOINT LeftKnee
			{
				OFFSET 2.57139 -7.06484 0.00000
				CHANNELS 3 Zrotation Yrotation Xrotation
				JOINT LeftAnkle
				{
					OFFSET 2.52017 -6.92413 0.00000
					CHANNELS 3 Zrotation Yrotation Xrotation
					JOINT LeftToe
					{
						OFFSET 0.23295 -0.64001 2.10214
						CHANNELS 3 Zrotation Yrotation Xrotation
						End Site
						{
							OFFSET 0.00000 -0.00000 1.10139
						}
					}
				}
			}
		}
	}
	JOINT RHipJoint
	{
		OFFSET 0 0 0
		CHANNELS 3 Zrotation Yrotation Xrotation
		JOINT RightHip
		{
			OFFSET -1.48061 -1.80800 0.67318
			CHANNELS 3 Zrotation Yrotation Xrotation
			JOINT RightKnee
			{
				OFFSET -2.63258 -7.23296 0.00000
				CHANNELS 3 Zrotation Yrotation Xrotation
				JOINT RightAnkle
				{
					OFFSET -2.54779 -7.00000 0.00000
					CHANNELS 3 Zrotation Yrotation Xrotation
					JOINT RightToe
					{
						OFFSET -0.23067 -0.63376 2.12161
						CHANNELS 3 Zrotation Yrotation Xrotation
						End Site
						{
							OFFSET -0.00000 -0.00000 1.11000
						}
					}
				}
			}
		}
	}
	JOINT lowerback
	{
		OFFSET 0 0 0
		CHANNELS 3 Zrotation Yrotation Xrotation
		JOINT Chest
		{
			OFFSET -0.02108 2.07573 -0.16981
			CHANNELS 3 Zrotation Yrotation Xrotation
			JOINT Chest2
			{
				OFFSET 0.05070 2.08439 -0.03141
				CHANNELS 3 Zrotation Yrotation Xrotation
				JOINT lowerneck
				{
					OFFSET 0 0 0
					CHANNELS 3 Zrotation Yrotation Xrotation
					JOINT Neck
					{
						OFFSET -0.10731 1.60408 0.31370
						CHANNELS 3 Zrotation Yrotation Xrotation
						JOINT Head
						{
							OFFSET 0.08411 1.65679 -0.30822
							CHANNELS 3 Zrotation Yrotation Xrotation
							End Site
							{
								OFFSET 0.03911 1.69149 -0.14146
							}
						}
					}
				}
				JOINT LeftCollar
				{
					OFFSET 0 0 0
					CHANNELS 3 Zrotation Yrotation Xrotation
					JOINT LeftShoulder
					{
						OFFSET 3.52315 0.73219 -0.54694
CHANNELS 3 Zrotation Xrotation Yrotation
						JOINT LeftElbow
						{
OFFSET 0 -5.324620 -0.000000
CHANNELS 3 Zrotation Xrotation Yrotation
							JOINT LeftWrist
							{
OFFSET 0 -3.484020 -0.000000
CHANNELS 3 Zrotation Xrotation Yrotation
								JOINT lhand
								{
									OFFSET 0 0 0
CHANNELS 3 Zrotation Xrotation Yrotation
									JOINT LFingers
									{
OFFSET 0 -0.572480 -0.000000
CHANNELS 3 Zrotation Xrotation Yrotation
										End Site
										{
OFFSET 0 -0.461540 -0.000000
										}
									}
								}
								JOINT LThumb
								{
OFFSET 0 0.000000 0.000000
CHANNELS 3 Zrotation Xrotation Yrotation
									End Site
									{
OFFSET 0 -0.468590 0.468590
									}
								}
							}
						}
					}
				}
				JOINT RightCollar
				{
					OFFSET 0 0 0
					CHANNELS 3 Zrotation Yrotation Xrotation
					JOINT RightShoulder
					{
						OFFSET -3.41766 0.93592 -0.10019
CHANNELS 3 Zrotation Xrotation Yrotation
						JOINT RightElbow
						{
OFFSET 0 -5.335890 -0.000000
CHANNELS 3 Zrotation Xrotation Yrotation
							JOINT RightWrist
							{
OFFSET 0 -3.641340 -0.000000
CHANNELS 3 Zrotation Xrotation Yrotation
								JOINT rhand
								{
									OFFSET 0 0 0
CHANNELS 3 Zrotation Xrotation Yrotation
									JOINT RFingers
									{
OFFSET 0 -0.734810 -0.000000
CHANNELS 3 Zrotation Xrotation Yrotation
										End Site
										{
OFFSET 0 -0.592420 -0.000000
										}
									}
								}
								JOINT RThumb
								{
OFFSET 0 0.000000 0.000000
CHANNELS 3 Zrotation Xrotation Yrotation
									End Site
									{
OFFSET 0 -0.601470 0.601470
									}
								}
							}
						}
					}
				}
			}
		}
	}
}
MOTION
Frames: 8
Frame Time: 0.008333333333333333
1.324100 17.637600 12.396600 178.712000 0.973600 -175.349000 0.000000 0.000000 0.000000 -25.801200 -2.632900 -9.929600 1.721300 8.259800 23.506000 0.670600 -6.585400 -14.637300 0.000400 0.123200 0.338400 0.000000 0.000000 0.000000 16.069100 9.987300 -13.210500 -3.400500 -11.316700 33.355600 -1.515200 3.058100 -22.482600 -0.060800 -1.591300 4.377300 -6.086100 -0.139800 -0.189300 1.077700 -0.183300 -0.481500 4.530200 -0.066300 -0.368000 -7.666200 -2.578400 -20.138400 2.839200 1.064100 36.751500 3.124500 0.768200 16.669000 0.000000 -0.000000 0.000000 -0.002100 0.680400 -19.706200 14.488100 -23.428200 3.019500 14.478000 17.024800 -24.398300 0.000000 0.000000 0.000000 -7.125000 0.000000 0.000000 -15.774700 54.382100 3.706600 0.000000 -0.000000 0.000000 -3.123700 5.143100 17.364000 -18.126300 -28.318500 -4.609000 -17.760500 19.938000 -4.237400 0.000000 0.000000 0.000000 7.125000 0.000000 -0.000000 6.690000 25.525900 3.174600
1.315414 17.637207 12.395522 178.859366 1.105528 -175.330242 0.000000 0.000000 0.000000 -25.677171 -2.633584 -9.982459 1.732454 8.284938 23.583044 0.680277 -6.463666 -14.731531 0.000092 0.035881 0.098649 0.000000 0.000000 0.000000 16.184154 9.999297 -13.251522 -3.396286 -11.310495 33.334239 -1.499374 3.075794 -22.356893 -0.058191 -1.556326 4.280953 -5.970597 -0.148000 -0.112344 1.151707 -0.199551 -0.488788 4.542189 -0.073129 -0.416693 -7.466959 -2.534052 -20.512477 2.595499 1.220217 37.021069 3.031583 0.820721 16.895482 0.000000 0.000000 0.000000 0.029512 0.699643 -19.805637 14.465470 -23.396203 3.010510 14.488201 17.162637 -24.311718 0.000000 0.000000 0.000000 -7.125000 0.000000 0.000000 -15.720608 54.299906 3.661444 0.000000 0.000000 0.000000 -3.130067 5.135575 17.496309 -18.238967 -28.462067 -4.662568 -17.457438 19.932201 -4.340263 0.000000 0.000000 0.000000 7.125000 0.000000 0.000000 6.913492 25.425922 3.298327
1.305713 17.635801 12.391177 178.747614 1.289019 -175.332287 0.000000 0.000000 0.000000 -25.864369 -2.642166 -9.924808 1.726530 8.271683 23.542272 0.681461 -6.249927 -14.730776 0.000100 -0.063517 -0.174461 0.000000 0.000000 0.000000 16.004675 9.973186 -13.305670 -3.408587 -11.328773 33.396835 -1.498661 3.254872 -22.317130 -0.057450 -1.546766 4.254634 -6.058306 -0.105050 -0.059734 1.102881 -0.146345 -0.527663 4.541026 -0.042550 -0.492915 -7.571888 -2.552877 -20.316227 2.687210 1.195424 37.005864 3.083755 0.816596 16.840857 0.000000 0.000000 0.000000 0.169958 0.759007 -19.954644 14.415247 -23.325231 2.990568 14.277597 17.225542 -24.680948 0.000000 0.000000 0.000000 -7.125000 0.000000 0.000000 -16.120871 54.618387 3.885266 0.000000 0.000000 0.000000 -3.080403 5.285744 17.578372 -18.328157 -28.575318 -4.705166 -17.637896 19.817424 -4.295507 0.000000 0.000000 0.000000 7.125000 0.000000 0.000000 6.779852 25.468111 3.226874
1.300441 17.637161 12.388327 178.783469 1.376551 -175.269648 0.000000 0.000000 0.000000 -25.847741 -2.673078 -9.971181 1.726069 8.270629 23.539172 0.678002 -6.152214 -14.688398 0.000016 0.013155 0.036028 0.000000 0.000000 0.000000 16.010586 10.017618 -13.389035 -3.409716 -11.330424 33.402678 -1.490594 3.214450 -22.261973 -0.046802 -1.396436 3.840447 -6.105147 -0.138203 -0.073921 1.166004 -0.190013 -0.548371 4.633382 -0.063236 -0.500687 -7.597699 -2.507209 -20.256142 2.704566 1.287453 37.062869 3.117596 0.858183 16.848611 0.000000 0.000000 0.000000 0.103746 0.820222 -19.710963 14.476004 -23.411118 3.014622 14.270946 17.284767 -24.797978 0.000000 0.000000 0.000000 -7.125000 0.000000 0.000000 -16.188470 54.730517 3.946695 0.000000 0.000000 0.000000 -3.127176 5.312662 17.633335 -18.341046 -28.591708 -4.711290 -17.709360 20.103232 -4.046049 0.000000 0.000000 0.000000 7.125000 0.000000 0.000000 6.736422 25.726328 3.165284
1.293343 17.634243 12.386023 178.660095 1.356927 -175.302915 0.000000 0.000000 0.000000 -26.013531 -2.715538 -9.893498 1.724146 8.266137 23.525412 0.684111 -6.114271 -14.752326 0.000123 -0.055234 -0.151838 0.000000 0.000000 0.000000 15.839775 9.952041 -13.350883 -3.412897 -11.335168 33.418907 -1.495739 3.448890 -22.259235 -0.063516 -1.624985 4.470360 -6.257286 -0.202073 -0.033078 1.155600 -0.277368 -0.495346 4.708917 -0.109377 -0.457488 -7.398798 -2.490403 -20.478230 2.509979 1.347705 37.212620 3.018323 0.878299 16.981750 0.000000 0.000000 0.000000 0.111378 0.813389 -19.709807 14.564499 -23.535853 3.049914 14.420184 17.095555 -24.863472 0.000000 0.000000 0.000000 -7.125000 0.000000 0.000000 -16.073359 54.822549 3.954107 0.000000 0.000000 0.000000 -3.128981 5.212129 17.751888 -18.297516 -28.536429 -4.690488 -18.195882 19.918286 -4.015352 0.000000 0.000000 0.000000 7.125000 0.000000 0.000000 6.370982 25.747720 2.988261
1.286786 17.631193 12.382707 178.678205 1.305400 -175.388028 0.000000 0.000000 0.000000 -26.014302 -2.721791 -9.833375 1.737720 8.296922 23.619576 0.689110 -6.146457 -14.806535 0.000154 -0.079558 -0.218658 0.000000 0.000000 0.000000 15.861557 9.897113 -13.221961 -3.403398 -11.321066 33.370403 -1.497581 3.397044 -22.282665 -0.058564 -1.561673 4.295740 -6.215386 -0.237497 0.024194 1.152728 -0.326938 -0.407132 4.682371 -0.139215 -0.392429 -7.227799 -2.446523 -20.482918 2.361846 1.381987 37.132877 2.922617 0.890398 16.939227 0.000000 0.000000 0.000000 0.173131 0.651707 -19.721597 14.523558 -23.478195 3.033608 14.271779 17.182596 -25.045289 0.000000 0.000000 0.000000 -7.125000 0.000000 0.000000 -16.319683 54.969667 4.077459 0.000000 0.000000 0.000000 -3.115971 5.188134 17.745543 -18.353333 -28.607202 -4.717148 -18.245682 19.780406 -4.081866 0.000000 0.000000 0.000000 7.125000 0.000000 0.000000 6.330937 25.676954 2.979749
1.281796 17.631378 12.383031 178.810569 1.173576 -175.355212 0.000000 0.000000 0.000000 -25.856529 -2.851092 -9.930661 1.758914 8.344695 23.765874 0.694690 -6.299011 -14.874160 0.000253 0.089771 0.246639 0.000000 0.000000 0.000000 15.999557 9.803973 -13.232406 -3.389747 -11.300763 33.301004 -1.505196 3.506720 -22.321953 -0.060347 -1.584910 4.359961 -6.113131 -0.301250 0.168251 1.209314 -0.421813 -0.437266 4.684613 -0.182989 -0.492535 -7.239019 -2.430837 -20.600728 2.414171 1.406770 37.211343 2.958928 0.904131 17.007591 0.000000 0.000000 0.000000 0.256633 0.663626 -19.932432 14.434969 -23.353083 2.998398 14.768613 17.327557 -24.492868 0.000000 0.000000 0.000000 -7.125000 0.000000 0.000000 -15.532276 54.529057 3.703827 0.000000 0.000000 0.000000 -3.197082 5.174993 17.953082 -18.322958 -28.568782 -4.702656 -17.792986 19.720145 -3.604338 0.000000 0.000000 0.000000 7.125000 0.000000 0.000000 6.692553 26.185144 3.072123
1.276021 17.627091 12.381170 178.887990 1.134141 -175.309840 0.000000 0.000000 0.000000 -25.785123 -3.019096 -9.962938 1.777498 8.386387 23.893825 0.701095 -6.219182 -14.937224 0.000115 -0.058673 -0.161110 0.000000 0.000000 0.000000 16.053705 9.810856 -13.276921 -3.393964 -11.306954 33.322276 -1.511489 3.553216 -22.361907 -0.063879 -1.630615 4.485982 -6.068304 -0.307298 0.217408 1.267693 -0.433458 -0.478763 4.720630 -0.185482 -0.561403 -7.367432 -2.476171 -20.420601 2.512834 1.330070 37.137955 3.004403 0.872859 16.928041 0.000000 0.000000 0.000000 0.282182 0.719141 -20.276843 14.505674 -23.452977 3.026448 14.445592 17.054403 -24.864028 0.000000 0.000000 0.000000 -7.125000 0.000000 0.000000 -16.047922 54.827861 3.949526 0.000000 0.000000 0.000000 -3.292330 5.352168 18.104910 -18.377358 -28.637675 -4.728724 -17.807064 19.590278 -3.827240 0.000000 0.000000 0.000000 7.125000 0.000000 0.000000 6.672047 25.952451 3.099163
